<svg width="35" height="35" viewBox="0 0 35 35" fill="none" xmlns="http://www.w3.org/2000/svg">
<g clip-path="url(#clip0)">
<path d="M31.3542 29.1667H10.9375C10.7348 29.1667 10.5423 29.0821 10.4052 28.9348L0.196867 17.9973C-0.0656326 17.7173 -0.0656326 17.2827 0.196867 17.0013L10.4052 6.06376C10.5423 5.91793 10.7348 5.83334 10.9375 5.83334H31.3542C33.3652 5.83334 35 7.46959 35 9.47918V25.5208C35 27.5304 33.3652 29.1667 31.3542 29.1667ZM11.2539 27.7083H31.3542C32.5602 27.7083 33.5417 26.7269 33.5417 25.5208V9.47918C33.5417 8.27313 32.5602 7.29168 31.3542 7.29168H11.2539L1.72666 17.5L11.2539 27.7083Z" fill="#6E9CF4"/>
<path d="M27.7083 23.3333C27.5217 23.3333 27.335 23.2619 27.1921 23.1204L16.9838 12.9121C16.6994 12.6277 16.6994 12.1654 16.9838 11.881C17.2681 11.5967 17.7304 11.5967 18.0148 11.881L28.2231 22.0894C28.5075 22.3737 28.5075 22.836 28.2231 23.1204C28.0817 23.2619 27.895 23.3333 27.7083 23.3333Z" fill="#6E9CF4"/>
<path d="M17.5 23.3333C17.3133 23.3333 17.1267 23.2619 16.9838 23.1204C16.6994 22.836 16.6994 22.3737 16.9838 22.0894L27.1921 11.881C27.4765 11.5967 27.9388 11.5967 28.2231 11.881C28.5075 12.1654 28.5075 12.6277 28.2231 12.9121L18.0148 23.1204C17.8733 23.2619 17.6867 23.3333 17.5 23.3333Z" fill="#6E9CF4"/>
</g>
<defs>
<clipPath id="clip0">
<rect width="35" height="35" fill="white"/>
</clipPath>
</defs>
</svg>
