<svg width="20" height="20" viewBox="0 0 20 20" fill="none" xmlns="http://www.w3.org/2000/svg">
<path d="M5.43743 16.3749L5.43743 4.13367L6.55806 5.2543C6.80212 5.49836 7.19775 5.49836 7.44181 5.2543C7.564 5.13211 7.62494 4.97242 7.62494 4.81242C7.62494 4.65242 7.564 4.49274 7.44181 4.37055L5.2543 2.18305C5.01024 1.93899 4.61462 1.93899 4.37055 2.18305L2.18305 4.37055C1.93898 4.61461 1.93898 5.01024 2.18305 5.2543C2.42711 5.49836 2.82274 5.49836 3.0668 5.2543L4.18743 4.13367L4.18743 16.3749C4.18743 16.7199 4.46743 16.9999 4.81243 16.9999C5.15743 16.9999 5.43743 16.7199 5.43743 16.3749Z" fill="black"/>
<path d="M11.875 3.125V15.3663L10.7544 14.2456C10.5103 14.0016 10.1147 14.0016 9.87062 14.2456C9.62656 14.4894 9.62656 14.8856 9.87062 15.1294L12.0581 17.3169C12.3022 17.5609 12.6978 17.5609 12.9419 17.3169L15.1294 15.1294C15.2516 15.0075 15.3125 14.8475 15.3125 14.6875C15.3125 14.5275 15.2516 14.3675 15.1294 14.2456C14.8853 14.0016 14.4897 14.0016 14.2456 14.2456L13.125 15.3663V3.125C13.125 2.78 12.845 2.5 12.5 2.5C12.155 2.5 11.875 2.78 11.875 3.125Z" fill="black"/>
</svg>
