<svg width="278" height="179" viewBox="0 0 278 179" fill="none" xmlns="http://www.w3.org/2000/svg">
<path d="M197.332 30.753L215.932 46.2034C243.691 69.2617 263.733 100.259 273.37 135.036L273.439 135.285C275.019 140.986 271.053 146.727 265.162 147.267L264.952 147.286C261.071 147.642 257.398 145.695 255.539 142.326C253.224 138.128 250.041 132.367 247.656 128.049C246.89 126.664 244.777 127.31 244.915 128.886L246.278 144.407C246.846 150.875 241.598 156.37 235.111 156.101L234.894 156.092C230.987 155.93 227.514 153.719 225.736 150.294L216.236 131.985C215.39 130.356 212.943 130.831 212.768 132.658L210.665 154.591C210.183 159.624 205.587 163.229 200.584 162.499C197.897 162.107 195.539 160.502 194.189 158.147L181.874 136.668L152.11 52.3281L197.332 30.753Z" fill="#ECF4FF"/>
<path d="M151.982 35.0011L184.848 19.3212L202.799 34.2323C226.92 68.4134 225.459 89.9043 188.5 146.152C184.848 143.652 183.955 140.316 183 138.652L169.39 125.236L147.758 63.94L151.982 35.0011Z" fill="#DDEAFB"/>
<path d="M236.845 119.598C236.568 119.714 236.274 119.798 235.965 119.846C233.907 120.165 231.98 118.756 231.659 116.699C231.614 116.414 228.072 95.0185 213.545 84.936C211.833 83.748 211.41 81.3975 212.597 79.6855C213.785 77.9739 216.135 77.5496 217.847 78.7375C235.09 90.7042 238.959 114.532 239.115 115.54C239.386 117.29 238.408 118.945 236.845 119.598Z" fill="#DDEAFB"/>
<path d="M80.626 33.753L62.026 49.2034C34.2669 72.2617 14.2246 103.259 4.58783 138.036L4.51868 138.285C2.93875 143.986 6.90498 149.727 12.7961 150.267L13.0055 150.286C16.887 150.642 20.5595 148.695 22.4184 145.326C24.7341 141.128 27.9165 135.367 30.302 131.049C31.0676 129.664 33.1812 130.31 33.0428 131.886L31.6798 147.407C31.112 153.875 36.3594 159.37 42.8468 159.101L43.0633 159.092C46.9704 158.93 50.4441 156.719 52.2213 153.294L61.7218 134.985C62.5674 133.356 65.0146 133.831 65.1897 135.658L67.2924 157.591C67.7748 162.624 72.3705 166.229 77.3736 165.499C80.0603 165.107 82.4183 163.502 83.7692 161.147L96.0838 139.668L125.848 55.3281L80.626 33.753Z" fill="#ECF4FF"/>
<path d="M125.976 38.0011L93.1098 22.3212L75.1591 37.2323C51.0379 71.4134 52.499 92.9043 89.4577 149.152C93.1098 146.652 94.0032 143.316 94.9577 141.652L108.568 128.236L130.2 66.94L125.976 38.0011Z" fill="#DDEAFB"/>
<path d="M41.1127 122.598C41.3893 122.714 41.6833 122.798 41.993 122.846C44.0512 123.165 45.9775 121.756 46.2985 119.699C46.3436 119.414 49.8856 98.0185 64.4128 87.936C66.1246 86.748 66.5482 84.3975 65.3608 82.6855C64.1732 80.9739 61.8224 80.5496 60.1102 81.7375C42.8679 93.7042 38.999 117.532 38.8426 118.54C38.5716 120.29 39.5495 121.945 41.1127 122.598Z" fill="#DDEAFB"/>
<circle cx="140" cy="75" r="75" fill="#FFE800"/>
<circle cx="140" cy="75" r="64.5" fill="#D6B81A"/>
<path d="M141.55 99.35C145.083 98.8833 147.75 97.7 149.55 95.8C151.383 93.8667 152.3 91.35 152.3 88.25C152.3 86.9833 152.067 85.8833 151.6 84.95C151.167 83.9833 150.533 83.1333 149.7 82.4C148.9 81.6667 147.95 81.0333 146.85 80.5C145.75 79.9667 144.55 79.4667 143.25 79L141.55 99.35ZM138.35 46.5C136.483 46.7333 134.9 47.1333 133.6 47.7C132.3 48.2333 131.233 48.9 130.4 49.7C129.567 50.5 128.95 51.4 128.55 52.4C128.183 53.4 128 54.45 128 55.55C128 56.8167 128.217 57.9333 128.65 58.9C129.117 59.8333 129.733 60.6833 130.5 61.45C131.3 62.1833 132.233 62.85 133.3 63.45C134.367 64.0167 135.533 64.55 136.8 65.05L138.35 46.5ZM144.2 67.45C146.6 68.1833 148.983 69 151.35 69.9C153.717 70.7667 155.833 71.9 157.7 73.3C159.6 74.7 161.133 76.45 162.3 78.55C163.467 80.6167 164.05 83.2167 164.05 86.35C164.05 89.45 163.533 92.3667 162.5 95.1C161.467 97.8 159.95 100.2 157.95 102.3C155.95 104.367 153.5 106.067 150.6 107.4C147.7 108.7 144.383 109.467 140.65 109.7L140.05 117.05C140.017 117.817 139.683 118.517 139.05 119.15C138.45 119.817 137.683 120.15 136.75 120.15H132.2L133.1 109.45C129.2 108.917 125.533 107.85 122.1 106.25C118.667 104.65 115.75 102.667 113.35 100.3L117.15 94.65C117.483 94.15 117.917 93.75 118.45 93.45C119.017 93.1167 119.617 92.95 120.25 92.95C120.983 92.95 121.767 93.2167 122.6 93.75C123.433 94.25 124.383 94.85 125.45 95.55C126.517 96.2167 127.733 96.9 129.1 97.6C130.467 98.3 132.083 98.8167 133.95 99.15L135.8 76.8C133.433 76.1333 131.083 75.35 128.75 74.45C126.45 73.55 124.367 72.3667 122.5 70.9C120.667 69.4 119.183 67.5167 118.05 65.25C116.917 62.9833 116.35 60.15 116.35 56.75C116.35 54.2167 116.85 51.75 117.85 49.35C118.85 46.9167 120.317 44.75 122.25 42.85C124.217 40.95 126.617 39.3833 129.45 38.15C132.283 36.9167 135.533 36.2167 139.2 36.05L139.75 29.75C139.817 28.95 140.15 28.2333 140.75 27.6C141.35 26.9667 142.133 26.65 143.1 26.65H147.65L146.85 36.45C150.383 37.0167 153.433 38.0333 156 39.5C158.567 40.9333 160.783 42.55 162.65 44.35L159.65 48.9C159.217 49.5667 158.767 50.0667 158.3 50.4C157.833 50.7333 157.267 50.9 156.6 50.9C156.1 50.9 155.5 50.75 154.8 50.45C154.1 50.1167 153.317 49.7333 152.45 49.3C151.583 48.8333 150.6 48.3667 149.5 47.9C148.433 47.4333 147.25 47.05 145.95 46.75L144.2 67.45Z" fill="#FFE800"/>
</svg>
